STARTFONT 2.1
FONT -Monotype-Times New Roman-Bold-I-Normal--14-140-75-75-P-74-iso8859-4
SIZE 14 75 75
FONTBOUNDINGBOX 19 17 -3 -4

STARTPROPERTIES 24
FOUNDRY "Monotype"
FAMILY_NAME "Times New Roman"
WEIGHT_NAME "Bold"
SLANT "I"
SETWIDTH_NAME "Normal"
ADD_STYLE_NAME ""
PIXEL_SIZE 14
POINT_SIZE 140
RESOLUTION_X 75
RESOLUTION_Y 75
SPACING "P"
AVERAGE_WIDTH 74
CHARSET_REGISTRY "iso8859"
CHARSET_ENCODING "4"
FACE_NAME "Times New Roman Bold Italic ISO Latin4"
_DEC_DEVICE_FONTNAMES "PS=timesnewroman-bit-lat4"
COPYRIGHT "Copyright (c) 1994 Monotype Typography Ltd."
CAP_HEIGHT 11
X_HEIGHT 7
WEIGHT 10
QUAD_WIDTH 8
DEFAULT_CHAR 160
FONT_DESCENT 4
FONT_ASCENT 13
ENDPROPERTIES

CHARS 191

STARTCHAR space
ENCODING 32
SWIDTH 250 0
DWIDTH 4 0
BBX 0 0 0 0
BITMAP
ENDCHAR

STARTCHAR exclam
ENCODING 33
SWIDTH 389 0
DWIDTH 6 0
BBX 4 10 1 0
BITMAP
10
30
30
30
20
40
40
00
C0
C0
ENDCHAR

STARTCHAR quotedbl
ENCODING 34
SWIDTH 555 0
DWIDTH 8 0
BBX 5 5 2 5
BITMAP
48
D8
D8
D8
90
ENDCHAR

STARTCHAR numbersign
ENCODING 35
SWIDTH 500 0
DWIDTH 8 0
BBX 8 10 0 0
BITMAP
12
12
12
7F
24
24
FE
48
48
48
ENDCHAR

STARTCHAR dollar
ENCODING 36
SWIDTH 500 0
DWIDTH 8 0
BBX 7 12 0 -1
BITMAP
08
3C
6A
6A
70
38
18
1C
AC
AC
78
40
ENDCHAR

STARTCHAR percent
ENCODING 37
SWIDTH 833 0
DWIDTH 12 0
BBX 11 10 0 0
BITMAP
3840
6C80
6D00
DA00
DDC0
7760
0B60
16C0
26C0
4380
ENDCHAR

STARTCHAR ampersand
ENCODING 38
SWIDTH 778 0
DWIDTH 12 0
BBX 10 10 1 0
BITMAP
0E00
1B00
1B00
1C00
19C0
6C80
CD00
C600
DB40
7180
ENDCHAR

STARTCHAR quoteright
ENCODING 39
SWIDTH 333 0
DWIDTH 5 0
BBX 3 5 1 5
BITMAP
20
60
20
40
80
ENDCHAR

STARTCHAR parenleft
ENCODING 40
SWIDTH 333 0
DWIDTH 5 0
BBX 6 13 0 -3
BITMAP
0C
18
30
30
60
60
C0
C0
C0
C0
C0
60
60
ENDCHAR

STARTCHAR parenright
ENCODING 41
SWIDTH 333 0
DWIDTH 5 0
BBX 6 13 -1 -3
BITMAP
18
18
0C
0C
0C
0C
0C
18
18
30
30
60
C0
ENDCHAR

STARTCHAR asterisk
ENCODING 42
SWIDTH 500 0
DWIDTH 8 0
BBX 6 5 1 5
BITMAP
30
B4
78
30
48
ENDCHAR

STARTCHAR plus
ENCODING 43
SWIDTH 570 0
DWIDTH 9 0
BBX 7 7 1 0
BITMAP
10
10
10
FE
10
10
10
ENDCHAR

STARTCHAR comma
ENCODING 44
SWIDTH 250 0
DWIDTH 4 0
BBX 3 5 0 -2
BITMAP
20
60
20
40
80
ENDCHAR

STARTCHAR minus
ENCODING 45
SWIDTH 606 0
DWIDTH 9 0
BBX 8 1 0 3
BITMAP
FF
ENDCHAR

STARTCHAR period
ENCODING 46
SWIDTH 250 0
DWIDTH 4 0
BBX 2 2 1 0
BITMAP
C0
C0
ENDCHAR

STARTCHAR slash
ENCODING 47
SWIDTH 278 0
DWIDTH 4 0
BBX 8 10 -2 0
BITMAP
03
06
06
0C
18
18
30
30
60
C0
ENDCHAR

STARTCHAR zero
ENCODING 48
SWIDTH 500 0
DWIDTH 7 0
BBX 6 10 0 0
BITMAP
38
6C
6C
CC
CC
CC
CC
D8
D8
70
ENDCHAR

STARTCHAR one
ENCODING 49
SWIDTH 500 0
DWIDTH 7 0
BBX 5 10 0 0
BITMAP
18
38
18
30
30
30
30
60
60
F0
ENDCHAR

STARTCHAR two
ENCODING 50
SWIDTH 500 0
DWIDTH 7 0
BBX 7 10 -1 0
BITMAP
1C
2E
06
06
0C
08
10
24
7C
F8
ENDCHAR

STARTCHAR three
ENCODING 51
SWIDTH 500 0
DWIDTH 7 0
BBX 7 10 -1 0
BITMAP
1C
26
06
0C
38
0C
0C
0C
98
F0
ENDCHAR

STARTCHAR four
ENCODING 52
SWIDTH 500 0
DWIDTH 7 0
BBX 7 10 -1 0
BITMAP
02
06
0E
16
2C
4C
FE
FE
18
18
ENDCHAR

STARTCHAR five
ENCODING 53
SWIDTH 500 0
DWIDTH 7 0
BBX 7 10 -1 0
BITMAP
1E
3E
20
78
1C
0C
0C
0C
D8
F0
ENDCHAR

STARTCHAR six
ENCODING 54
SWIDTH 500 0
DWIDTH 7 0
BBX 7 10 0 0
BITMAP
0E
30
60
78
CC
CC
CC
CC
D8
70
ENDCHAR

STARTCHAR seven
ENCODING 55
SWIDTH 500 0
DWIDTH 7 0
BBX 7 10 0 0
BITMAP
7E
FC
88
08
10
20
20
40
40
80
ENDCHAR

STARTCHAR eight
ENCODING 56
SWIDTH 500 0
DWIDTH 7 0
BBX 6 10 0 0
BITMAP
38
6C
6C
68
30
58
CC
CC
C8
70
ENDCHAR

STARTCHAR nine
ENCODING 57
SWIDTH 500 0
DWIDTH 7 0
BBX 7 10 0 0
BITMAP
1C
36
66
66
66
66
3C
0C
18
E0
ENDCHAR

STARTCHAR colon
ENCODING 58
SWIDTH 333 0
DWIDTH 5 0
BBX 3 7 1 0
BITMAP
60
60
00
00
00
C0
C0
ENDCHAR

STARTCHAR semicolon
ENCODING 59
SWIDTH 333 0
DWIDTH 5 0
BBX 4 9 0 -2
BITMAP
30
30
00
00
20
60
20
40
80
ENDCHAR

STARTCHAR less
ENCODING 60
SWIDTH 570 0
DWIDTH 9 0
BBX 8 8 1 0
BITMAP
03
0F
38
E0
E0
38
0F
03
ENDCHAR

STARTCHAR equal
ENCODING 61
SWIDTH 570 0
DWIDTH 9 0
BBX 8 4 1 2
BITMAP
FF
00
00
FF
ENDCHAR

STARTCHAR greater
ENCODING 62
SWIDTH 570 0
DWIDTH 9 0
BBX 8 8 1 0
BITMAP
C0
F0
1C
07
07
1C
F0
C0
ENDCHAR

STARTCHAR question
ENCODING 63
SWIDTH 500 0
DWIDTH 8 0
BBX 6 10 2 0
BITMAP
78
CC
CC
18
30
60
40
00
C0
C0
ENDCHAR

STARTCHAR at
ENCODING 64
SWIDTH 832 0
DWIDTH 12 0
BBX 12 13 0 -3
BITMAP
0F80
3060
2020
4690
4D90
8D90
9990
9B20
9B60
4D90
6020
18E0
0700
ENDCHAR

STARTCHAR A
ENCODING 65
SWIDTH 667 0
DWIDTH 10 0
BBX 10 10 -1 0
BITMAP
0080
0180
0380
0580
0980
1180
1F80
2180
4180
E3C0
ENDCHAR

STARTCHAR B
ENCODING 66
SWIDTH 667 0
DWIDTH 10 0
BBX 9 10 0 0
BITMAP
3F00
1980
1980
3300
3E00
3300
3300
6300
6600
FC00
ENDCHAR

STARTCHAR C
ENCODING 67
SWIDTH 667 0
DWIDTH 10 0
BBX 9 10 1 0
BITMAP
0E80
3100
6100
6000
C000
C000
C000
C000
6200
3C00
ENDCHAR

STARTCHAR D
ENCODING 68
SWIDTH 722 0
DWIDTH 11 0
BBX 10 10 0 0
BITMAP
3F00
1980
18C0
30C0
30C0
30C0
3180
6180
6300
FC00
ENDCHAR

STARTCHAR E
ENCODING 69
SWIDTH 667 0
DWIDTH 10 0
BBX 10 10 0 0
BITMAP
3FC0
1840
1800
3100
3E00
3200
3000
6080
6100
FF00
ENDCHAR

STARTCHAR F
ENCODING 70
SWIDTH 667 0
DWIDTH 10 0
BBX 10 10 0 0
BITMAP
3FC0
1840
1800
3100
3E00
3200
3000
6000
6000
F000
ENDCHAR

STARTCHAR G
ENCODING 71
SWIDTH 722 0
DWIDTH 11 0
BBX 10 10 1 0
BITMAP
0F40
3080
6080
6000
C000
C780
C300
C300
6300
3E00
ENDCHAR

STARTCHAR H
ENCODING 72
SWIDTH 778 0
DWIDTH 12 0
BBX 12 10 0 0
BITMAP
3CF0
1860
1860
30C0
3FC0
30C0
30C0
6180
6180
F3C0
ENDCHAR

STARTCHAR I
ENCODING 73
SWIDTH 389 0
DWIDTH 6 0
BBX 6 10 0 0
BITMAP
3C
18
18
30
30
30
30
60
60
F0
ENDCHAR

STARTCHAR J
ENCODING 74
SWIDTH 500 0
DWIDTH 8 0
BBX 8 10 0 0
BITMAP
0F
06
06
0C
0C
0C
0C
D8
D8
70
ENDCHAR

STARTCHAR K
ENCODING 75
SWIDTH 667 0
DWIDTH 10 0
BBX 10 10 0 0
BITMAP
3DC0
1880
1900
3200
3C00
3600
3300
6300
6180
F3C0
ENDCHAR

STARTCHAR L
ENCODING 76
SWIDTH 611 0
DWIDTH 9 0
BBX 9 10 0 0
BITMAP
3C00
1800
1800
3000
3000
3000
3000
6080
6100
FF00
ENDCHAR

STARTCHAR M
ENCODING 77
SWIDTH 889 0
DWIDTH 13 0
BBX 13 10 0 0
BITMAP
3838
1870
18B0
2CB0
2D60
2D60
2E60
4CC0
4CC0
E9E0
ENDCHAR

STARTCHAR N
ENCODING 78
SWIDTH 722 0
DWIDTH 11 0
BBX 11 10 0 0
BITMAP
38E0
1840
1C40
2C80
2680
2680
2300
4300
4100
E100
ENDCHAR

STARTCHAR O
ENCODING 79
SWIDTH 722 0
DWIDTH 11 0
BBX 9 10 1 0
BITMAP
0F00
3180
6180
6180
C180
C180
C300
C300
C600
7800
ENDCHAR

STARTCHAR P
ENCODING 80
SWIDTH 611 0
DWIDTH 9 0
BBX 9 10 0 0
BITMAP
3F00
1980
1980
3180
3300
3E00
3000
6000
6000
F000
ENDCHAR

STARTCHAR Q
ENCODING 81
SWIDTH 722 0
DWIDTH 11 0
BBX 10 13 0 -3
BITMAP
0780
18C0
30C0
30C0
60C0
60C0
6180
6180
6300
3C00
2000
7CC0
9F00
ENDCHAR

STARTCHAR R
ENCODING 82
SWIDTH 667 0
DWIDTH 10 0
BBX 9 10 0 0
BITMAP
3F00
1980
1980
3180
3300
3C00
3600
6600
6300
F380
ENDCHAR

STARTCHAR S
ENCODING 83
SWIDTH 556 0
DWIDTH 8 0
BBX 10 10 -1 0
BITMAP
0F40
1880
3080
3800
1C00
0E00
0700
4300
4600
BC00
ENDCHAR

STARTCHAR T
ENCODING 84
SWIDTH 611 0
DWIDTH 9 0
BBX 9 10 0 0
BITMAP
7F80
4C80
8C80
1800
1800
1800
1800
3000
3000
7800
ENDCHAR

STARTCHAR U
ENCODING 85
SWIDTH 722 0
DWIDTH 11 0
BBX 11 10 1 0
BITMAP
78E0
3040
3040
6080
6080
6080
C100
C100
C200
7C00
ENDCHAR

STARTCHAR V
ENCODING 86
SWIDTH 667 0
DWIDTH 10 0
BBX 10 10 1 0
BITMAP
F1C0
6080
6100
6200
6200
6400
6800
7000
6000
4000
ENDCHAR

STARTCHAR W
ENCODING 87
SWIDTH 889 0
DWIDTH 13 0
BBX 14 10 1 0
BITMAP
F79C
6308
6310
6720
6720
6B40
7380
7380
6300
4200
ENDCHAR

STARTCHAR X
ENCODING 88
SWIDTH 667 0
DWIDTH 10 0
BBX 12 10 -1 0
BITMAP
3CF0
1840
0C80
0D00
0600
0600
0B00
1300
2180
F3C0
ENDCHAR

STARTCHAR Y
ENCODING 89
SWIDTH 611 0
DWIDTH 9 0
BBX 9 10 1 0
BITMAP
F380
6100
6200
3400
3800
3000
3000
6000
6000
F000
ENDCHAR

STARTCHAR Z
ENCODING 90
SWIDTH 611 0
DWIDTH 9 0
BBX 11 10 -1 0
BITMAP
1FE0
10C0
2180
0300
0600
0C00
1800
3080
6100
FF00
ENDCHAR

STARTCHAR bracketleft
ENCODING 91
SWIDTH 333 0
DWIDTH 5 0
BBX 6 13 -1 -3
BITMAP
1C
18
18
30
30
30
30
60
60
60
C0
C0
E0
ENDCHAR

STARTCHAR backslash
ENCODING 92
SWIDTH 278 0
DWIDTH 4 0
BBX 8 10 -2 0
BITMAP
C0
60
30
30
18
18
0C
06
06
03
ENDCHAR

STARTCHAR bracketright
ENCODING 93
SWIDTH 333 0
DWIDTH 5 0
BBX 6 13 -1 -3
BITMAP
1C
0C
0C
18
18
18
18
30
30
30
60
60
E0
ENDCHAR

STARTCHAR asciicircum
ENCODING 94
SWIDTH 570 0
DWIDTH 9 0
BBX 7 5 1 5
BITMAP
10
28
44
44
82
ENDCHAR

STARTCHAR underscore
ENCODING 95
SWIDTH 500 0
DWIDTH 8 0
BBX 8 1 0 -2
BITMAP
FF
ENDCHAR

STARTCHAR quoteleft
ENCODING 96
SWIDTH 333 0
DWIDTH 5 0
BBX 3 5 1 5
BITMAP
20
40
80
C0
80
ENDCHAR

STARTCHAR a
ENCODING 97
SWIDTH 500 0
DWIDTH 8 0
BBX 8 7 0 0
BITMAP
1B
36
66
C6
CC
DC
6E
ENDCHAR

STARTCHAR b
ENCODING 98
SWIDTH 500 0
DWIDTH 7 0
BBX 6 10 0 0
BITMAP
70
30
30
78
6C
6C
6C
CC
D8
F0
ENDCHAR

STARTCHAR c
ENCODING 99
SWIDTH 444 0
DWIDTH 7 0
BBX 6 7 0 0
BITMAP
38
6C
CC
C0
C0
C8
70
ENDCHAR

STARTCHAR d
ENCODING 100
SWIDTH 500 0
DWIDTH 7 0
BBX 7 10 0 0
BITMAP
0E
06
06
3C
6C
6C
CC
D8
D8
EC
ENDCHAR

STARTCHAR e
ENCODING 101
SWIDTH 444 0
DWIDTH 7 0
BBX 6 7 0 0
BITMAP
38
6C
D8
F0
C0
C8
70
ENDCHAR

STARTCHAR f
ENCODING 102
SWIDTH 333 0
DWIDTH 5 0
BBX 10 13 -3 -3
BITMAP
01C0
0340
0600
1F00
0C00
0C00
0C00
1800
1800
1800
3000
B000
E000
ENDCHAR

STARTCHAR g
ENCODING 103
SWIDTH 500 0
DWIDTH 7 0
BBX 8 10 -1 -3
BITMAP
1C
37
66
6C
38
60
78
CC
CC
78
ENDCHAR

STARTCHAR h
ENCODING 104
SWIDTH 556 0
DWIDTH 7 0
BBX 6 10 0 0
BITMAP
70
30
30
6C
7C
6C
6C
D8
D8
DC
ENDCHAR

STARTCHAR i
ENCODING 105
SWIDTH 278 0
DWIDTH 4 0
BBX 4 10 0 0
BITMAP
30
30
00
E0
60
60
60
C0
C0
E0
ENDCHAR

STARTCHAR j
ENCODING 106
SWIDTH 278 0
DWIDTH 4 0
BBX 7 13 -3 -3
BITMAP
06
06
00
1C
0C
0C
0C
18
18
18
18
D0
60
ENDCHAR

STARTCHAR k
ENCODING 107
SWIDTH 500 0
DWIDTH 7 0
BBX 7 10 0 0
BITMAP
70
30
30
66
64
68
70
D8
DA
CC
ENDCHAR

STARTCHAR l
ENCODING 108
SWIDTH 278 0
DWIDTH 4 0
BBX 4 10 0 0
BITMAP
70
30
30
60
60
60
60
C0
C0
E0
ENDCHAR

STARTCHAR m
ENCODING 109
SWIDTH 778 0
DWIDTH 12 0
BBX 11 7 0 0
BITMAP
EEE0
7760
6660
6660
CCC0
CCC0
CCE0
ENDCHAR

STARTCHAR n
ENCODING 110
SWIDTH 556 0
DWIDTH 7 0
BBX 6 7 0 0
BITMAP
EC
7C
6C
6C
D8
D8
DC
ENDCHAR

STARTCHAR o
ENCODING 111
SWIDTH 500 0
DWIDTH 7 0
BBX 6 7 0 0
BITMAP
38
6C
CC
CC
CC
D8
70
ENDCHAR

STARTCHAR p
ENCODING 112
SWIDTH 500 0
DWIDTH 7 0
BBX 8 10 -2 -3
BITMAP
3B
1F
1B
1B
33
36
3C
60
60
F0
ENDCHAR

STARTCHAR q
ENCODING 113
SWIDTH 500 0
DWIDTH 7 0
BBX 6 10 0 -3
BITMAP
34
6C
6C
CC
D8
D8
F8
30
30
78
ENDCHAR

STARTCHAR r
ENCODING 114
SWIDTH 389 0
DWIDTH 6 0
BBX 6 7 0 0
BITMAP
EC
74
60
60
C0
C0
C0
ENDCHAR

STARTCHAR s
ENCODING 115
SWIDTH 389 0
DWIDTH 6 0
BBX 6 7 0 0
BITMAP
34
6C
64
30
98
D8
B0
ENDCHAR

STARTCHAR t
ENCODING 116
SWIDTH 278 0
DWIDTH 4 0
BBX 5 9 0 0
BITMAP
10
30
F8
60
60
60
C0
D0
E0
ENDCHAR

STARTCHAR u
ENCODING 117
SWIDTH 556 0
DWIDTH 7 0
BBX 6 7 0 0
BITMAP
EC
6C
6C
D8
D8
F8
DC
ENDCHAR

STARTCHAR v
ENCODING 118
SWIDTH 444 0
DWIDTH 7 0
BBX 6 7 0 0
BITMAP
24
EC
64
68
70
60
40
ENDCHAR

STARTCHAR w
ENCODING 119
SWIDTH 667 0
DWIDTH 10 0
BBX 9 7 0 0
BITMAP
2480
ED80
6C80
6D00
7E00
6C00
4800
ENDCHAR

STARTCHAR x
ENCODING 120
SWIDTH 500 0
DWIDTH 7 0
BBX 8 7 -1 0
BITMAP
73
35
18
18
18
AE
CC
ENDCHAR

STARTCHAR y
ENCODING 121
SWIDTH 444 0
DWIDTH 7 0
BBX 8 10 -2 -3
BITMAP
09
3B
19
19
1A
1C
18
10
A0
C0
ENDCHAR

STARTCHAR z
ENCODING 122
SWIDTH 389 0
DWIDTH 6 0
BBX 7 8 -1 -1
BITMAP
3E
3C
48
10
20
4C
EC
38
ENDCHAR

STARTCHAR braceleft
ENCODING 123
SWIDTH 348 0
DWIDTH 5 0
BBX 6 14 0 -4
BITMAP
0C
18
30
30
30
30
C0
60
60
60
C0
C0
C0
60
ENDCHAR

STARTCHAR bar
ENCODING 124
SWIDTH 220 0
DWIDTH 3 0
BBX 1 13 1 -3
BITMAP
80
80
80
80
80
80
80
80
80
80
80
80
80
ENDCHAR

STARTCHAR braceright
ENCODING 125
SWIDTH 348 0
DWIDTH 5 0
BBX 6 14 -1 -4
BITMAP
18
0C
0C
0C
18
18
18
0C
30
30
30
30
60
C0
ENDCHAR

STARTCHAR asciitilde
ENCODING 126
SWIDTH 570 0
DWIDTH 9 0
BBX 7 3 1 3
BITMAP
72
FE
8C
ENDCHAR

STARTCHAR space
ENCODING 160
SWIDTH 250 0
DWIDTH 4 0
BBX 0 0 0 0
BITMAP
ENDCHAR

STARTCHAR Aogonek
ENCODING 161
SWIDTH 667 0
DWIDTH 10 0
BBX 10 13 -1 -3
BITMAP
0080
0180
0380
0580
0980
1180
1F80
2180
4180
E3C0
0100
0100
00C0
ENDCHAR

STARTCHAR afii240
ENCODING 162
SWIDTH 500 0
DWIDTH 8 0
BBX 9 7 -1 0
BITMAP
7B80
3100
3200
3C00
6C00
6600
F700
ENDCHAR

STARTCHAR Rcommaaccent
ENCODING 163
SWIDTH 667 0
DWIDTH 10 0
BBX 9 14 0 -4
BITMAP
3F00
1980
1980
3180
3300
3C00
3600
6600
6300
F380
0000
1800
0800
1000
ENDCHAR

STARTCHAR currency
ENCODING 164
SWIDTH 500 0
DWIDTH 8 0
BBX 7 7 1 0
BITMAP
BA
44
82
82
82
44
BA
ENDCHAR

STARTCHAR Itilde
ENCODING 165
SWIDTH 389 0
DWIDTH 6 0
BBX 7 13 0 0
BITMAP
0A
14
00
3C
18
18
30
30
30
30
60
60
F0
ENDCHAR

STARTCHAR Lcommaaccent
ENCODING 166
SWIDTH 611 0
DWIDTH 9 0
BBX 9 14 0 -4
BITMAP
3C00
1800
1800
3000
3000
3000
3000
6080
6100
FF00
0000
3000
1000
2000
ENDCHAR

STARTCHAR section
ENCODING 167
SWIDTH 500 0
DWIDTH 8 0
BBX 8 13 0 -3
BITMAP
1E
33
33
30
1C
26
66
64
38
0C
CC
CC
78
ENDCHAR

STARTCHAR hungarumlaut
ENCODING 168
SWIDTH 333 0
DWIDTH 5 0
BBX 5 2 1 8
BITMAP
48
90
ENDCHAR

STARTCHAR Scaron
ENCODING 169
SWIDTH 556 0
DWIDTH 8 0
BBX 10 13 -1 0
BITMAP
0480
0300
0000
0F40
1880
3080
3800
1C00
0E00
0700
4300
4600
BC00
ENDCHAR

STARTCHAR Emacron
ENCODING 170
SWIDTH 667 0
DWIDTH 10 0
BBX 10 12 0 0
BITMAP
0F80
0000
3FC0
1840
1800
3100
3E00
3200
3000
6080
6100
FF00
ENDCHAR

STARTCHAR Gcommaaccent
ENCODING 171
SWIDTH 722 0
DWIDTH 11 0
BBX 10 14 1 -4
BITMAP
0F40
3080
6080
6000
C000
C780
C300
C300
6300
3E00
0000
1800
0800
1000
ENDCHAR

STARTCHAR afii237
ENCODING 172
SWIDTH 611 0
DWIDTH 9 0
BBX 9 10 0 0
BITMAP
7F80
4C80
8C80
1800
1800
FF00
1800
3000
3000
7800
ENDCHAR

STARTCHAR hyphen
ENCODING 173
SWIDTH 333 0
DWIDTH 5 0
BBX 5 2 0 5
BITMAP
F8
F8
ENDCHAR

STARTCHAR Zcaron
ENCODING 174
SWIDTH 611 0
DWIDTH 9 0
BBX 11 13 -1 0
BITMAP
0240
0180
0000
1FE0
10C0
2180
0300
0600
0C00
1800
3080
6100
FF00
ENDCHAR

STARTCHAR macron
ENCODING 175
SWIDTH 333 0
DWIDTH 5 0
BBX 6 1 0 8
BITMAP
FC
ENDCHAR

STARTCHAR degree
ENCODING 176
SWIDTH 400 0
DWIDTH 6 0
BBX 5 5 1 5
BITMAP
70
88
88
88
70
ENDCHAR

STARTCHAR aogonek
ENCODING 177
SWIDTH 500 0
DWIDTH 8 0
BBX 8 10 0 -3
BITMAP
1B
36
66
C6
CC
DC
6E
08
08
06
ENDCHAR

STARTCHAR ogonek
ENCODING 178
SWIDTH 333 0
DWIDTH 5 0
BBX 3 3 1 -3
BITMAP
80
80
60
ENDCHAR

STARTCHAR rcommaaccent
ENCODING 179
SWIDTH 389 0
DWIDTH 6 0
BBX 6 11 0 -4
BITMAP
EC
74
60
60
C0
C0
C0
00
C0
40
80
ENDCHAR

STARTCHAR acute
ENCODING 180
SWIDTH 333 0
DWIDTH 5 0
BBX 2 2 2 8
BITMAP
40
80
ENDCHAR

STARTCHAR itilde
ENCODING 181
SWIDTH 278 0
DWIDTH 4 0
BBX 4 10 0 0
BITMAP
50
A0
00
E0
60
60
60
C0
C0
E0
ENDCHAR

STARTCHAR lcommaaccent
ENCODING 182
SWIDTH 278 0
DWIDTH 4 0
BBX 4 14 0 -4
BITMAP
70
30
30
60
60
60
60
C0
C0
E0
00
C0
40
80
ENDCHAR

STARTCHAR caron
ENCODING 183
SWIDTH 333 0
DWIDTH 5 0
BBX 4 2 1 9
BITMAP
90
60
ENDCHAR

STARTCHAR commaaccent
ENCODING 184
SWIDTH 333 0
DWIDTH 5 0
BBX 2 3 2 -4
BITMAP
C0
40
80
ENDCHAR

STARTCHAR scaron
ENCODING 185
SWIDTH 389 0
DWIDTH 6 0
BBX 7 10 0 0
BITMAP
12
0C
00
34
6C
64
30
98
D8
B0
ENDCHAR

STARTCHAR emacron
ENCODING 186
SWIDTH 444 0
DWIDTH 7 0
BBX 7 9 0 0
BITMAP
3E
00
38
6C
D8
F0
C0
C8
70
ENDCHAR

STARTCHAR gcommaaccent
ENCODING 187
SWIDTH 500 0
DWIDTH 7 0
BBX 8 14 -1 -3
BITMAP
04
08
0C
00
1C
37
66
6C
38
60
78
CC
CC
78
ENDCHAR

STARTCHAR afii253
ENCODING 188
SWIDTH 278 0
DWIDTH 4 0
BBX 5 9 0 0
BITMAP
10
30
F8
60
F0
60
C0
D0
E0
ENDCHAR

STARTCHAR afii238
ENCODING 189
SWIDTH 775 0
DWIDTH 12 0
BBX 11 10 0 0
BITMAP
3B80
1CC0
1860
3060
3060
3060
30C0
60C0
6580
F300
ENDCHAR

STARTCHAR zcaron
ENCODING 190
SWIDTH 389 0
DWIDTH 6 0
BBX 7 11 -1 -1
BITMAP
12
0C
00
3E
3C
48
10
20
4C
EC
38
ENDCHAR

STARTCHAR afii254
ENCODING 191
SWIDTH 477 0
DWIDTH 7 0
BBX 6 10 0 -3
BITMAP
EC
7C
6C
6C
D8
D8
D8
30
B0
E0
ENDCHAR

STARTCHAR Amacron
ENCODING 192
SWIDTH 667 0
DWIDTH 10 0
BBX 11 12 -1 0
BITMAP
03E0
0000
0080
0180
0380
0580
0980
1180
1F80
2180
4180
E3C0
ENDCHAR

STARTCHAR Aacute
ENCODING 193
SWIDTH 667 0
DWIDTH 10 0
BBX 11 13 -1 0
BITMAP
0020
0040
0000
0080
0180
0380
0580
0980
1180
1F80
2180
4180
E3C0
ENDCHAR

STARTCHAR Acircumflex
ENCODING 194
SWIDTH 667 0
DWIDTH 10 0
BBX 11 13 -1 0
BITMAP
00C0
0120
0000
0080
0180
0380
0580
0980
1180
1F80
2180
4180
E3C0
ENDCHAR

STARTCHAR Atilde
ENCODING 195
SWIDTH 667 0
DWIDTH 10 0
BBX 11 13 -1 0
BITMAP
00A0
0140
0000
0080
0180
0380
0580
0980
1180
1F80
2180
4180
E3C0
ENDCHAR

STARTCHAR Adieresis
ENCODING 196
SWIDTH 667 0
DWIDTH 10 0
BBX 11 12 -1 0
BITMAP
0120
0000
0080
0180
0380
0580
0980
1180
1F80
2180
4180
E3C0
ENDCHAR

STARTCHAR Aring
ENCODING 197
SWIDTH 667 0
DWIDTH 10 0
BBX 10 12 -1 0
BITMAP
0080
0140
0080
0180
0380
0580
0980
1180
1F80
2180
4180
E3C0
ENDCHAR

STARTCHAR AE
ENCODING 198
SWIDTH 944 0
DWIDTH 14 0
BBX 15 10 -1 0
BITMAP
07FE
02C2
04C0
0588
09F8
1190
1F80
2304
4308
E7F8
ENDCHAR

STARTCHAR Iogonek
ENCODING 199
SWIDTH 389 0
DWIDTH 6 0
BBX 6 13 0 -3
BITMAP
3C
18
18
30
30
30
30
60
60
F0
40
40
30
ENDCHAR

STARTCHAR Ccaron
ENCODING 200
SWIDTH 667 0
DWIDTH 10 0
BBX 9 13 1 0
BITMAP
0900
0600
0000
0E80
3100
6100
6000
C000
C000
C000
C000
6200
3C00
ENDCHAR

STARTCHAR Eacute
ENCODING 201
SWIDTH 667 0
DWIDTH 10 0
BBX 10 13 0 0
BITMAP
0080
0100
0000
3FC0
1840
1800
3100
3E00
3200
3000
6080
6100
FF00
ENDCHAR

STARTCHAR Eogonek
ENCODING 202
SWIDTH 667 0
DWIDTH 10 0
BBX 10 13 0 -3
BITMAP
3FC0
1840
1800
3100
3E00
3200
3000
6080
6100
FF00
0800
0800
0600
ENDCHAR

STARTCHAR Edieresis
ENCODING 203
SWIDTH 667 0
DWIDTH 10 0
BBX 10 12 0 0
BITMAP
0480
0000
3FC0
1840
1800
3100
3E00
3200
3000
6080
6100
FF00
ENDCHAR

STARTCHAR Edotaccent
ENCODING 204
SWIDTH 667 0
DWIDTH 10 0
BBX 10 12 0 0
BITMAP
0200
0000
3FC0
1840
1800
3100
3E00
3200
3000
6080
6100
FF00
ENDCHAR

STARTCHAR Iacute
ENCODING 205
SWIDTH 389 0
DWIDTH 6 0
BBX 6 13 0 0
BITMAP
04
08
00
3C
18
18
30
30
30
30
60
60
F0
ENDCHAR

STARTCHAR Icircumflex
ENCODING 206
SWIDTH 389 0
DWIDTH 6 0
BBX 7 13 0 0
BITMAP
0C
12
00
3C
18
18
30
30
30
30
60
60
F0
ENDCHAR

STARTCHAR Imacron
ENCODING 207
SWIDTH 389 0
DWIDTH 6 0
BBX 7 12 0 0
BITMAP
3E
00
3C
18
18
30
30
30
30
60
60
F0
ENDCHAR

STARTCHAR Eth
ENCODING 208
SWIDTH 722 0
DWIDTH 11 0
BBX 10 10 0 0
BITMAP
3F00
1980
18C0
30C0
7CC0
30C0
3180
6180
6300
FC00
ENDCHAR

STARTCHAR Ncommaaccent
ENCODING 209
SWIDTH 722 0
DWIDTH 11 0
BBX 11 14 0 -4
BITMAP
38E0
1840
1C40
2C80
2680
2680
2300
4300
4100
E100
0000
1800
0800
1000
ENDCHAR

STARTCHAR Omacron
ENCODING 210
SWIDTH 722 0
DWIDTH 11 0
BBX 9 12 1 0
BITMAP
0F80
0000
0F00
3180
6180
6180
C180
C180
C300
C300
C600
7800
ENDCHAR

STARTCHAR Kcommaaccent
ENCODING 211
SWIDTH 667 0
DWIDTH 10 0
BBX 10 14 0 -4
BITMAP
3DC0
1880
1900
3200
3C00
3600
3300
6300
6180
F3C0
0000
1800
0800
1000
ENDCHAR

STARTCHAR Ocircumflex
ENCODING 212
SWIDTH 722 0
DWIDTH 11 0
BBX 9 13 1 0
BITMAP
0300
0480
0000
0F00
3180
6180
6180
C180
C180
C300
C300
C600
7800
ENDCHAR

STARTCHAR Otilde
ENCODING 213
SWIDTH 722 0
DWIDTH 11 0
BBX 9 13 1 0
BITMAP
0280
0500
0000
0F00
3180
6180
6180
C180
C180
C300
C300
C600
7800
ENDCHAR

STARTCHAR Odieresis
ENCODING 214
SWIDTH 722 0
DWIDTH 11 0
BBX 9 12 1 0
BITMAP
0480
0000
0F00
3180
6180
6180
C180
C180
C300
C300
C600
7800
ENDCHAR

STARTCHAR multiply
ENCODING 215
SWIDTH 570 0
DWIDTH 9 0
BBX 5 5 2 1
BITMAP
88
50
20
50
88
ENDCHAR

STARTCHAR Oslash
ENCODING 216
SWIDTH 722 0
DWIDTH 11 0
BBX 11 10 0 0
BITMAP
07A0
18C0
31C0
32C0
64C0
64C0
6980
7180
6300
BC00
ENDCHAR

STARTCHAR Uogonek
ENCODING 217
SWIDTH 722 0
DWIDTH 11 0
BBX 11 13 1 -3
BITMAP
78E0
3040
3040
6080
6080
6080
C100
C100
C200
7C00
1000
1000
0C00
ENDCHAR

STARTCHAR Uacute
ENCODING 218
SWIDTH 722 0
DWIDTH 11 0
BBX 11 13 1 0
BITMAP
0100
0200
0000
78E0
3040
3040
6080
6080
6080
C100
C100
C200
7C00
ENDCHAR

STARTCHAR Ucircumflex
ENCODING 219
SWIDTH 722 0
DWIDTH 11 0
BBX 11 13 1 0
BITMAP
0300
0480
0000
78E0
3040
3040
6080
6080
6080
C100
C100
C200
7C00
ENDCHAR

STARTCHAR Udieresis
ENCODING 220
SWIDTH 722 0
DWIDTH 11 0
BBX 11 12 1 0
BITMAP
0480
0000
78E0
3040
3040
6080
6080
6080
C100
C100
C200
7C00
ENDCHAR

STARTCHAR Utilde
ENCODING 221
SWIDTH 722 0
DWIDTH 11 0
BBX 11 13 1 0
BITMAP
0280
0500
0000
78E0
3040
3040
6080
6080
6080
C100
C100
C200
7C00
ENDCHAR

STARTCHAR Umacron
ENCODING 222
SWIDTH 722 0
DWIDTH 11 0
BBX 11 12 1 0
BITMAP
0780
0000
78E0
3040
3040
6080
6080
6080
C100
C100
C200
7C00
ENDCHAR

STARTCHAR germandbls
ENCODING 223
SWIDTH 500 0
DWIDTH 8 0
BBX 11 13 -3 -3
BITMAP
01C0
0360
0660
0CC0
0D80
0CC0
0CC0
18C0
1980
1B00
3000
B000
E000
ENDCHAR

STARTCHAR amacron
ENCODING 224
SWIDTH 500 0
DWIDTH 8 0
BBX 8 9 0 0
BITMAP
1F
00
1B
36
66
C6
CC
DC
6E
ENDCHAR

STARTCHAR aacute
ENCODING 225
SWIDTH 500 0
DWIDTH 8 0
BBX 8 10 0 0
BITMAP
02
04
00
1B
36
66
C6
CC
DC
6E
ENDCHAR

STARTCHAR acircumflex
ENCODING 226
SWIDTH 500 0
DWIDTH 8 0
BBX 8 10 0 0
BITMAP
06
09
00
1B
36
66
C6
CC
DC
6E
ENDCHAR

STARTCHAR atilde
ENCODING 227
SWIDTH 500 0
DWIDTH 8 0
BBX 8 10 0 0
BITMAP
05
0A
00
1B
36
66
C6
CC
DC
6E
ENDCHAR

STARTCHAR adieresis
ENCODING 228
SWIDTH 500 0
DWIDTH 8 0
BBX 8 9 0 0
BITMAP
09
00
1B
36
66
C6
CC
DC
6E
ENDCHAR

STARTCHAR aring
ENCODING 229
SWIDTH 500 0
DWIDTH 8 0
BBX 8 11 0 0
BITMAP
02
05
02
00
1B
36
66
C6
CC
DC
6E
ENDCHAR

STARTCHAR ae
ENCODING 230
SWIDTH 722 0
DWIDTH 11 0
BBX 11 7 0 0
BITMAP
1AC0
3760
66C0
C780
CC00
DC80
6700
ENDCHAR

STARTCHAR iogonek
ENCODING 231
SWIDTH 278 0
DWIDTH 4 0
BBX 4 13 0 -3
BITMAP
30
30
00
E0
60
60
60
C0
C0
E0
80
80
60
ENDCHAR

STARTCHAR ccaron
ENCODING 232
SWIDTH 444 0
DWIDTH 7 0
BBX 6 10 0 0
BITMAP
24
18
00
38
6C
CC
C0
C0
C8
70
ENDCHAR

STARTCHAR eacute
ENCODING 233
SWIDTH 444 0
DWIDTH 7 0
BBX 6 10 0 0
BITMAP
04
08
00
38
6C
D8
F0
C0
C8
70
ENDCHAR

STARTCHAR eogonek
ENCODING 234
SWIDTH 444 0
DWIDTH 7 0
BBX 6 10 0 -3
BITMAP
38
6C
D8
F0
C0
C8
70
20
20
18
ENDCHAR

STARTCHAR edieresis
ENCODING 235
SWIDTH 444 0
DWIDTH 7 0
BBX 6 9 0 0
BITMAP
24
00
38
6C
D8
F0
C0
C8
70
ENDCHAR

STARTCHAR edotaccent
ENCODING 236
SWIDTH 444 0
DWIDTH 7 0
BBX 6 9 0 0
BITMAP
08
00
38
6C
D8
F0
C0
C8
70
ENDCHAR

STARTCHAR iacute
ENCODING 237
SWIDTH 278 0
DWIDTH 4 0
BBX 4 10 0 0
BITMAP
10
20
00
E0
60
60
60
C0
C0
E0
ENDCHAR

STARTCHAR icircumflex
ENCODING 238
SWIDTH 278 0
DWIDTH 4 0
BBX 5 10 0 0
BITMAP
30
48
00
E0
60
60
60
C0
C0
E0
ENDCHAR

STARTCHAR imacron
ENCODING 239
SWIDTH 278 0
DWIDTH 4 0
BBX 5 9 0 0
BITMAP
78
00
E0
60
60
60
C0
C0
E0
ENDCHAR

STARTCHAR dcroat
ENCODING 240
SWIDTH 500 0
DWIDTH 8 0
BBX 8 10 0 0
BITMAP
0E
3F
06
3C
6C
6C
CC
D8
D8
EC
ENDCHAR

STARTCHAR ncommaaccent
ENCODING 241
SWIDTH 556 0
DWIDTH 7 0
BBX 6 11 0 -4
BITMAP
EC
7C
6C
6C
D8
D8
DC
00
60
20
40
ENDCHAR

STARTCHAR omacron
ENCODING 242
SWIDTH 500 0
DWIDTH 7 0
BBX 6 9 0 0
BITMAP
3C
00
38
6C
CC
CC
CC
D8
70
ENDCHAR

STARTCHAR kcommaaccent
ENCODING 243
SWIDTH 500 0
DWIDTH 7 0
BBX 7 14 0 -4
BITMAP
70
30
30
66
64
68
70
D8
DA
CC
00
60
20
40
ENDCHAR

STARTCHAR ocircumflex
ENCODING 244
SWIDTH 500 0
DWIDTH 7 0
BBX 6 10 0 0
BITMAP
18
24
00
38
6C
CC
CC
CC
D8
70
ENDCHAR

STARTCHAR otilde
ENCODING 245
SWIDTH 500 0
DWIDTH 7 0
BBX 6 10 0 0
BITMAP
14
28
00
38
6C
CC
CC
CC
D8
70
ENDCHAR

STARTCHAR odieresis
ENCODING 246
SWIDTH 500 0
DWIDTH 7 0
BBX 6 9 0 0
BITMAP
24
00
38
6C
CC
CC
CC
D8
70
ENDCHAR

STARTCHAR divide
ENCODING 247
SWIDTH 570 0
DWIDTH 9 0
BBX 7 5 1 1
BITMAP
10
00
FE
00
10
ENDCHAR

STARTCHAR oslash
ENCODING 248
SWIDTH 500 0
DWIDTH 7 0
BBX 8 7 -1 0
BITMAP
1D
36
6E
6E
76
6C
B8
ENDCHAR

STARTCHAR uogonek
ENCODING 249
SWIDTH 556 0
DWIDTH 7 0
BBX 6 10 0 -3
BITMAP
EC
6C
6C
D8
D8
F8
DC
10
10
0C
ENDCHAR

STARTCHAR uacute
ENCODING 250
SWIDTH 556 0
DWIDTH 7 0
BBX 6 10 0 0
BITMAP
08
10
00
EC
6C
6C
D8
D8
F8
DC
ENDCHAR

STARTCHAR ucircumflex
ENCODING 251
SWIDTH 556 0
DWIDTH 7 0
BBX 6 10 0 0
BITMAP
18
24
00
EC
6C
6C
D8
D8
F8
DC
ENDCHAR

STARTCHAR udieresis
ENCODING 252
SWIDTH 556 0
DWIDTH 7 0
BBX 6 9 0 0
BITMAP
24
00
EC
6C
6C
D8
D8
F8
DC
ENDCHAR

STARTCHAR utilde
ENCODING 253
SWIDTH 556 0
DWIDTH 7 0
BBX 6 10 0 0
BITMAP
14
28
00
EC
6C
6C
D8
D8
F8
DC
ENDCHAR

STARTCHAR umacron
ENCODING 254
SWIDTH 556 0
DWIDTH 7 0
BBX 6 9 0 0
BITMAP
3C
00
EC
6C
6C
D8
D8
F8
DC
ENDCHAR

STARTCHAR dotaccent
ENCODING 255
SWIDTH 333 0
DWIDTH 5 0
BBX 1 1 3 8
BITMAP
80
ENDCHAR
ENDFONT
